<mxfile host="app.diagrams.net" modified="2024-01-29T04:17:53.389Z" agent="Mozilla/5.0 (Windows NT 10.0; Win64; x64) AppleWebKit/537.36 (KHTML, like Gecko) Chrome/120.0.0.0 Safari/537.36" etag="ju6N1N1uKoFokPZkiRSa" version="23.0.2" type="github">
  <diagram name="페이지-1" id="jG4BQbCK-0B_TToYoaJ_">
    <mxGraphModel dx="1434" dy="780" grid="1" gridSize="10" guides="1" tooltips="1" connect="1" arrows="1" fold="1" page="1" pageScale="1" pageWidth="827" pageHeight="1169" math="0" shadow="0">
      <root>
        <mxCell id="0" />
        <mxCell id="1" parent="0" />
        <mxCell id="jEBta2MCqmqwZ38XiKFs-1" value="고객" style="whiteSpace=wrap;html=1;align=center;" vertex="1" parent="1">
          <mxGeometry x="270" y="140" width="100" height="40" as="geometry" />
        </mxCell>
        <mxCell id="jEBta2MCqmqwZ38XiKFs-3" value="고객코드" style="ellipse;whiteSpace=wrap;html=1;align=center;fontStyle=4;" vertex="1" parent="1">
          <mxGeometry x="120" y="40" width="100" height="40" as="geometry" />
        </mxCell>
        <mxCell id="jEBta2MCqmqwZ38XiKFs-4" value="고객명" style="ellipse;whiteSpace=wrap;html=1;align=center;" vertex="1" parent="1">
          <mxGeometry x="120" y="80" width="100" height="40" as="geometry" />
        </mxCell>
        <mxCell id="jEBta2MCqmqwZ38XiKFs-5" value="지역" style="ellipse;whiteSpace=wrap;html=1;align=center;" vertex="1" parent="1">
          <mxGeometry x="120" y="200" width="100" height="40" as="geometry" />
        </mxCell>
        <mxCell id="jEBta2MCqmqwZ38XiKFs-6" value="이메일" style="ellipse;whiteSpace=wrap;html=1;align=center;" vertex="1" parent="1">
          <mxGeometry x="120" y="160" width="100" height="40" as="geometry" />
        </mxCell>
        <mxCell id="jEBta2MCqmqwZ38XiKFs-7" value="전화번호" style="ellipse;whiteSpace=wrap;html=1;align=center;" vertex="1" parent="1">
          <mxGeometry x="120" y="120" width="100" height="40" as="geometry" />
        </mxCell>
        <mxCell id="jEBta2MCqmqwZ38XiKFs-8" value="가입일" style="ellipse;whiteSpace=wrap;html=1;align=center;" vertex="1" parent="1">
          <mxGeometry x="120" y="240" width="100" height="40" as="geometry" />
        </mxCell>
        <mxCell id="jEBta2MCqmqwZ38XiKFs-9" value="" style="endArrow=none;html=1;rounded=0;exitX=1;exitY=0.5;exitDx=0;exitDy=0;" edge="1" parent="1" source="jEBta2MCqmqwZ38XiKFs-3">
          <mxGeometry relative="1" as="geometry">
            <mxPoint x="110" y="160" as="sourcePoint" />
            <mxPoint x="270" y="160" as="targetPoint" />
          </mxGeometry>
        </mxCell>
        <mxCell id="jEBta2MCqmqwZ38XiKFs-10" value="" style="endArrow=none;html=1;rounded=0;exitX=1;exitY=0.5;exitDx=0;exitDy=0;" edge="1" parent="1" source="jEBta2MCqmqwZ38XiKFs-5">
          <mxGeometry relative="1" as="geometry">
            <mxPoint x="110" y="159.5" as="sourcePoint" />
            <mxPoint x="270" y="159.5" as="targetPoint" />
          </mxGeometry>
        </mxCell>
        <mxCell id="jEBta2MCqmqwZ38XiKFs-11" value="" style="endArrow=none;html=1;rounded=0;exitX=1;exitY=0.5;exitDx=0;exitDy=0;" edge="1" parent="1" source="jEBta2MCqmqwZ38XiKFs-6">
          <mxGeometry relative="1" as="geometry">
            <mxPoint x="110" y="160" as="sourcePoint" />
            <mxPoint x="270" y="160" as="targetPoint" />
          </mxGeometry>
        </mxCell>
        <mxCell id="jEBta2MCqmqwZ38XiKFs-12" value="" style="endArrow=none;html=1;rounded=0;exitX=1;exitY=0.5;exitDx=0;exitDy=0;" edge="1" parent="1" source="jEBta2MCqmqwZ38XiKFs-7">
          <mxGeometry relative="1" as="geometry">
            <mxPoint x="110" y="159.5" as="sourcePoint" />
            <mxPoint x="270" y="159.5" as="targetPoint" />
          </mxGeometry>
        </mxCell>
        <mxCell id="jEBta2MCqmqwZ38XiKFs-13" value="" style="endArrow=none;html=1;rounded=0;exitX=1;exitY=0.5;exitDx=0;exitDy=0;" edge="1" parent="1" source="jEBta2MCqmqwZ38XiKFs-4">
          <mxGeometry relative="1" as="geometry">
            <mxPoint x="110" y="159.5" as="sourcePoint" />
            <mxPoint x="270" y="159.5" as="targetPoint" />
          </mxGeometry>
        </mxCell>
        <mxCell id="jEBta2MCqmqwZ38XiKFs-15" value="" style="endArrow=none;html=1;rounded=0;exitX=1;exitY=0.5;exitDx=0;exitDy=0;" edge="1" parent="1" source="jEBta2MCqmqwZ38XiKFs-8">
          <mxGeometry relative="1" as="geometry">
            <mxPoint x="110" y="159.5" as="sourcePoint" />
            <mxPoint x="270" y="159.5" as="targetPoint" />
          </mxGeometry>
        </mxCell>
        <mxCell id="jEBta2MCqmqwZ38XiKFs-16" value="지역코드" style="ellipse;whiteSpace=wrap;html=1;align=center;" vertex="1" parent="1">
          <mxGeometry y="170" width="100" height="40" as="geometry" />
        </mxCell>
        <mxCell id="jEBta2MCqmqwZ38XiKFs-17" value="지역명" style="ellipse;whiteSpace=wrap;html=1;align=center;" vertex="1" parent="1">
          <mxGeometry y="240" width="100" height="40" as="geometry" />
        </mxCell>
        <mxCell id="jEBta2MCqmqwZ38XiKFs-18" value="" style="endArrow=none;html=1;rounded=0;exitX=1;exitY=0.5;exitDx=0;exitDy=0;" edge="1" parent="1" source="jEBta2MCqmqwZ38XiKFs-16">
          <mxGeometry relative="1" as="geometry">
            <mxPoint x="-40" y="219.5" as="sourcePoint" />
            <mxPoint x="120" y="219.5" as="targetPoint" />
          </mxGeometry>
        </mxCell>
        <mxCell id="jEBta2MCqmqwZ38XiKFs-19" value="" style="endArrow=none;html=1;rounded=0;exitX=1;exitY=0.5;exitDx=0;exitDy=0;" edge="1" parent="1" source="jEBta2MCqmqwZ38XiKFs-17">
          <mxGeometry relative="1" as="geometry">
            <mxPoint x="-40" y="220" as="sourcePoint" />
            <mxPoint x="120" y="220" as="targetPoint" />
          </mxGeometry>
        </mxCell>
        <mxCell id="jEBta2MCqmqwZ38XiKFs-20" value="제품" style="whiteSpace=wrap;html=1;align=center;" vertex="1" parent="1">
          <mxGeometry x="567" y="140" width="100" height="40" as="geometry" />
        </mxCell>
        <mxCell id="jEBta2MCqmqwZ38XiKFs-22" value="제품코드" style="ellipse;whiteSpace=wrap;html=1;align=center;fontStyle=4;" vertex="1" parent="1">
          <mxGeometry x="727" y="80" width="100" height="40" as="geometry" />
        </mxCell>
        <mxCell id="jEBta2MCqmqwZ38XiKFs-23" value="제품색상" style="ellipse;whiteSpace=wrap;html=1;align=center;" vertex="1" parent="1">
          <mxGeometry x="727" y="160" width="100" height="40" as="geometry" />
        </mxCell>
        <mxCell id="jEBta2MCqmqwZ38XiKFs-24" value="제품명" style="ellipse;whiteSpace=wrap;html=1;align=center;" vertex="1" parent="1">
          <mxGeometry x="727" y="120" width="100" height="40" as="geometry" />
        </mxCell>
        <mxCell id="jEBta2MCqmqwZ38XiKFs-25" value="가격" style="ellipse;whiteSpace=wrap;html=1;align=center;" vertex="1" parent="1">
          <mxGeometry x="727" y="200" width="100" height="40" as="geometry" />
        </mxCell>
        <mxCell id="jEBta2MCqmqwZ38XiKFs-26" value="" style="endArrow=none;html=1;rounded=0;entryX=0;entryY=0.5;entryDx=0;entryDy=0;" edge="1" parent="1" target="jEBta2MCqmqwZ38XiKFs-25">
          <mxGeometry relative="1" as="geometry">
            <mxPoint x="667" y="159.5" as="sourcePoint" />
            <mxPoint x="827" y="159.5" as="targetPoint" />
          </mxGeometry>
        </mxCell>
        <mxCell id="jEBta2MCqmqwZ38XiKFs-27" value="" style="endArrow=none;html=1;rounded=0;entryX=0;entryY=0.5;entryDx=0;entryDy=0;" edge="1" parent="1" target="jEBta2MCqmqwZ38XiKFs-23">
          <mxGeometry relative="1" as="geometry">
            <mxPoint x="667" y="160" as="sourcePoint" />
            <mxPoint x="827" y="160" as="targetPoint" />
          </mxGeometry>
        </mxCell>
        <mxCell id="jEBta2MCqmqwZ38XiKFs-28" value="" style="endArrow=none;html=1;rounded=0;entryX=0;entryY=0.5;entryDx=0;entryDy=0;" edge="1" parent="1" target="jEBta2MCqmqwZ38XiKFs-24">
          <mxGeometry relative="1" as="geometry">
            <mxPoint x="667" y="159.5" as="sourcePoint" />
            <mxPoint x="827" y="159.5" as="targetPoint" />
          </mxGeometry>
        </mxCell>
        <mxCell id="jEBta2MCqmqwZ38XiKFs-29" value="" style="endArrow=none;html=1;rounded=0;entryX=0;entryY=0.5;entryDx=0;entryDy=0;" edge="1" parent="1" target="jEBta2MCqmqwZ38XiKFs-22">
          <mxGeometry relative="1" as="geometry">
            <mxPoint x="667" y="159.5" as="sourcePoint" />
            <mxPoint x="827" y="159.5" as="targetPoint" />
          </mxGeometry>
        </mxCell>
        <mxCell id="jEBta2MCqmqwZ38XiKFs-38" value="" style="endArrow=none;html=1;rounded=0;exitX=1;exitY=0.5;exitDx=0;exitDy=0;entryX=0;entryY=0.5;entryDx=0;entryDy=0;" edge="1" parent="1" source="jEBta2MCqmqwZ38XiKFs-1" target="jEBta2MCqmqwZ38XiKFs-20">
          <mxGeometry relative="1" as="geometry">
            <mxPoint x="330" y="300" as="sourcePoint" />
            <mxPoint x="490" y="300" as="targetPoint" />
          </mxGeometry>
        </mxCell>
        <mxCell id="jEBta2MCqmqwZ38XiKFs-39" value="M" style="resizable=0;html=1;whiteSpace=wrap;align=left;verticalAlign=bottom;" connectable="0" vertex="1" parent="jEBta2MCqmqwZ38XiKFs-38">
          <mxGeometry x="-1" relative="1" as="geometry" />
        </mxCell>
        <mxCell id="jEBta2MCqmqwZ38XiKFs-40" value="N" style="resizable=0;html=1;whiteSpace=wrap;align=right;verticalAlign=bottom;" connectable="0" vertex="1" parent="jEBta2MCqmqwZ38XiKFs-38">
          <mxGeometry x="1" relative="1" as="geometry" />
        </mxCell>
        <mxCell id="jEBta2MCqmqwZ38XiKFs-30" value="구매" style="shape=rhombus;perimeter=rhombusPerimeter;whiteSpace=wrap;html=1;align=center;" vertex="1" parent="1">
          <mxGeometry x="400" y="130" width="120" height="60" as="geometry" />
        </mxCell>
        <mxCell id="jEBta2MCqmqwZ38XiKFs-41" value="구매수량" style="ellipse;whiteSpace=wrap;html=1;align=center;" vertex="1" parent="1">
          <mxGeometry x="330" y="40" width="100" height="40" as="geometry" />
        </mxCell>
        <mxCell id="jEBta2MCqmqwZ38XiKFs-42" value="구매일자" style="ellipse;whiteSpace=wrap;html=1;align=center;" vertex="1" parent="1">
          <mxGeometry x="490" y="40" width="100" height="40" as="geometry" />
        </mxCell>
        <mxCell id="jEBta2MCqmqwZ38XiKFs-43" value="" style="endArrow=none;html=1;rounded=0;exitX=0.6;exitY=0.95;exitDx=0;exitDy=0;exitPerimeter=0;entryX=0.5;entryY=0;entryDx=0;entryDy=0;" edge="1" parent="1" source="jEBta2MCqmqwZ38XiKFs-41" target="jEBta2MCqmqwZ38XiKFs-30">
          <mxGeometry relative="1" as="geometry">
            <mxPoint x="310" y="130" as="sourcePoint" />
            <mxPoint x="470" y="130" as="targetPoint" />
          </mxGeometry>
        </mxCell>
        <mxCell id="jEBta2MCqmqwZ38XiKFs-45" value="" style="endArrow=none;html=1;rounded=0;entryX=0.5;entryY=1;entryDx=0;entryDy=0;exitX=0.5;exitY=0;exitDx=0;exitDy=0;" edge="1" parent="1" source="jEBta2MCqmqwZ38XiKFs-30" target="jEBta2MCqmqwZ38XiKFs-42">
          <mxGeometry relative="1" as="geometry">
            <mxPoint x="450" y="130" as="sourcePoint" />
            <mxPoint x="610" y="130" as="targetPoint" />
          </mxGeometry>
        </mxCell>
      </root>
    </mxGraphModel>
  </diagram>
</mxfile>
